<svg width="512" height="512" viewBox="0 0 512 512" fill="none" xmlns="http://www.w3.org/2000/svg">
  <rect width="512" height="512" rx="96" fill="#0C0E12"/>
  <circle cx="256" cy="256" r="138" fill="url(#paint0_radial)"/>
  <path d="M256 112C276.2 178.1 320.1 222 386 242C319.9 262.2 276 306.1 256 372C235.8 305.9 191.9 262 126 242C192.1 221.8 236 177.9 256 112Z" fill="#F4F6F8"/>
  <path d="M352 116C360.4 143.4 378.6 161.6 406 170C378.6 178.4 360.4 196.6 352 224C343.6 196.6 325.4 178.4 298 170C325.4 161.6 343.6 143.4 352 116Z" fill="#57D98D"/>
  <defs>
    <radialGradient id="paint0_radial" cx="0" cy="0" r="1" gradientUnits="userSpaceOnUse" gradientTransform="translate(214 176) rotate(58) scale(236)">
      <stop stop-color="#5B8DFF"/>
      <stop offset="0.55" stop-color="#276DFF"/>
      <stop offset="1" stop-color="#1E2533"/>
    </radialGradient>
  </defs>
</svg>
