<svg xmlns="http://www.w3.org/2000/svg" width="1100" height="620" viewBox="0 0 1100 620" role="img" aria-label="Orion architecture diagram">
  <rect width="1100" height="620" fill="#0c0e12"/>
  <text x="60" y="70" fill="#f4f6f8" font-family="Arial, sans-serif" font-size="34" font-weight="700">Orion Architecture</text>
  <g fill="#12151b" stroke="#2b313c" stroke-width="2">
    <rect x="60" y="120" width="220" height="100" rx="14"/>
    <rect x="330" y="120" width="220" height="100" rx="14"/>
    <rect x="600" y="120" width="220" height="100" rx="14"/>
    <rect x="330" y="300" width="220" height="100" rx="14"/>
    <rect x="600" y="300" width="220" height="100" rx="14"/>
    <rect x="330" y="470" width="220" height="90" rx="14"/>
    <rect x="600" y="470" width="220" height="90" rx="14"/>
  </g>
  <g fill="#f4f6f8" font-family="Arial, sans-serif" font-size="18" font-weight="700">
    <text x="112" y="176">Next.js UI</text>
    <text x="388" y="176">Hooks</text>
    <text x="658" y="176">Services</text>
    <text x="372" y="356">Workers</text>
    <text x="650" y="356">WebLLM</text>
    <text x="376" y="525">IndexedDB</text>
    <text x="652" y="525">Cache API</text>
  </g>
  <g stroke="#5b8dff" stroke-width="3" marker-end="url(#arrow)">
    <line x1="280" y1="170" x2="330" y2="170"/>
    <line x1="550" y1="170" x2="600" y2="170"/>
    <line x1="710" y1="220" x2="710" y2="300"/>
    <line x1="600" y1="350" x2="550" y2="350"/>
    <line x1="440" y1="400" x2="440" y2="470"/>
    <line x1="710" y1="400" x2="710" y2="470"/>
  </g>
  <defs><marker id="arrow" markerWidth="10" markerHeight="10" refX="8" refY="3" orient="auto"><path d="M0,0 L0,6 L9,3 z" fill="#5b8dff"/></marker></defs>
</svg>
